# xmcd
#
# Track frame offsets:
#	150
#	9842
#	21327
#	30960
#	43112
#	55427
#	65700
#	76910
#	88535
#	100597
#	109652
#	122267
#	134547
#	144765
#	154420
#	164085
#	175725
#	188040
#	198975
#	208955
#	221277
#	232510
#	245220
#	255435
#
# Disc length: 3560 seconds
#
# Revision: 8
# Processed by: cddbd v1.5.2PL0 Copyright (c) Steve Scherf et al.
# Submitted via: dBpowerAMP V4.0
#
DISCID=3e0de618
DTITLE=Various Artist - Country USA - 1956
DYEAR=1956
DGENRE=Country
TTITLE0=Elvis Presley - Heartbreak Hotel
TTITLE1=Red Sovine and Webb Pierce - Why Baby Why
TTITLE2=Faron Young - I've Got Five Dollars And It's Saturday Night
TTITLE3=The Louvin Brothers - Cash On The Barrel Head
TTITLE4=The Browns - I Take The Chance
TTITLE5=Hank Thompson - The Blackboard Of My Heart
TTITLE6=Marty Robbins - Singing The Blues
TTITLE7=Ray Price - Crazy Arms
TTITLE8=Elvis Presley - I Want You, I Need You, I Love You
TTITLE9=Johnny Horton - I'm A One-Woman Man
TTITLE10=Red Foley and Kitty Wells - You And Me
TTITLE11=Johnny Cash - I Walk The Line
TTITLE12=Carl Perkins - Blue Suede Shoes
TTITLE13=Webb Pierce - Any Old Time
TTITLE14=The Louvin Brothers - I Don't Believe You've Met My Baby
TTITLE15=Eddy Arnold - Trouble In Mind
TTITLE16=Ray Price - I've Got A New Heartache
TTITLE17=Kitty Wells - Searching
TTITLE18=Carl Smith - You Are The One
TTITLE19=Faron Young - Sweet Dreams
TTITLE20=Webb Pierce - Yes I Know Why
TTITLE21=Johnny Cash - Folsom Prison Blues
TTITLE22=The Louvin Brothers - You're Running Wild
TTITLE23=Eddy Arnold - You Don't Know Me
EXTD=
EXTT0=
EXTT1=
EXTT2=
EXTT3=
EXTT4=
EXTT5=
EXTT6=
EXTT7=
EXTT8=
EXTT9=
EXTT10=
EXTT11=
EXTT12=
EXTT13=
EXTT14=
EXTT15=
EXTT16=
EXTT17=
EXTT18=
EXTT19=
EXTT20=
EXTT21=
EXTT22=
EXTT23=
PLAYORDER=
